<svg width="24" height="24" viewBox="0 0 24 24" fill="none" xmlns="http://www.w3.org/2000/svg">
<path d="M0.0619659 5.26288C0.170155 4.71791 0.411795 4.21921 0.749249 3.80723C0.820404 3.71746 0.894749 3.63707 0.975327 3.55668C1.57322 2.95584 2.41237 2.58102 3.32911 2.58102H20.6709C21.5876 2.58102 22.4238 2.95584 23.0245 3.55668C23.1049 3.63707 23.1792 3.71746 23.2506 3.80723C23.5882 4.21916 23.8298 4.71791 23.935 5.26288C23.9782 5.47321 24 5.69057 24 5.91032V18.09C24 18.5572 23.9009 19.0064 23.7242 19.412C23.5603 19.7992 23.3186 20.1495 23.0245 20.4433C22.95 20.5176 22.876 20.586 22.7952 20.654C22.2193 21.1309 21.4759 21.419 20.6709 21.419H3.32911C2.52379 21.419 1.77717 21.1309 1.20459 20.651C1.12406 20.586 1.04967 20.5176 0.975327 20.4433C0.681421 20.1495 0.439779 19.7992 0.272482 19.412V19.409C0.0958099 19.0034 4.57764e-05 18.5572 4.57764e-05 18.09V5.91032C-1.90735e-06 5.69057 0.0214195 5.47321 0.0619659 5.26288ZM21.8199 4.76113C21.5225 4.46404 21.123 4.28418 20.6709 4.28418H3.32911C2.87695 4.28418 2.47401 4.46404 2.18011 4.76113C2.12751 4.81406 2.07797 4.87302 2.03423 4.93162L11.1236 12.8533C11.3743 13.073 11.684 13.1815 12 13.1815C12.3128 13.1815 12.6223 13.073 12.8763 12.8533L21.9622 4.92824C21.922 4.86965 21.8725 4.81406 21.8199 4.76113ZM22.2968 18.09V6.6907L15.7192 12.4289L22.2935 18.161C22.2968 18.1393 22.2968 18.1148 22.2968 18.09ZM3.32911 19.7155H20.6709C20.9653 19.7155 21.2408 19.6381 21.4759 19.5021L14.5395 13.4571L13.8919 14.0205C13.35 14.4914 12.6718 14.7299 12 14.7299C11.3247 14.7299 10.6466 14.4914 10.1047 14.0205L9.4575 13.4571L2.52375 19.5021C2.7592 19.6381 3.03469 19.7155 3.32911 19.7155ZM1.70316 18.09C1.70316 18.1148 1.70316 18.1393 1.70634 18.161L8.28065 12.4322L1.70316 6.69374V18.09Z" fill="black"/>
</svg>
